<svg xmlns="http://www.w3.org/2000/svg" width="44" height="44" viewBox="0 0 44 44" fill="none">
  <path d="M29.6815 3.66667H14.3182C7.64484 3.66667 3.6665 7.645 3.6665 14.3183V29.6633C3.6665 36.355 7.64484 40.3333 14.3182 40.3333H29.6632C36.3365 40.3333 40.3148 36.355 40.3148 29.6817V14.3183C40.3332 7.645 36.3548 3.66667 29.6815 3.66667ZM28.8932 28.8933C28.7832 30.4517 28.6548 32.395 25.1348 32.395H18.8648C15.3632 32.395 15.2165 30.4517 15.1065 28.8933L14.5382 21.6333C14.5015 21.1567 14.6665 20.6983 14.9782 20.35C15.2898 20.0017 15.7482 19.8183 16.2065 19.8183H27.7932C28.2515 19.8183 28.7098 20.02 29.0215 20.35C29.3332 20.6983 29.4982 21.1567 29.4615 21.615L28.8932 28.8933ZM30.7998 18.0033C30.7632 18.0033 30.7265 18.0033 30.6898 18.0033C28.7832 17.82 27.0415 17.6917 25.3732 17.6183C23.1365 17.5083 20.8998 17.4717 18.6448 17.5633C17.5448 17.6183 16.4265 17.6917 15.3265 17.8017L13.3282 18.0033C13.2915 18.0033 13.2365 18.0033 13.1998 18.0033C12.5582 18.0033 12.0082 17.5267 11.9532 16.8667C11.8798 16.1883 12.3932 15.565 13.0715 15.51L15.0698 15.3083C15.8582 15.235 16.6282 15.18 17.4165 15.1433L17.5632 14.2817C17.7098 13.365 17.9848 11.605 20.7348 11.605H23.2832C26.0515 11.605 26.3265 13.42 26.4548 14.3L26.6015 15.18C27.9765 15.2533 29.3882 15.3633 30.9282 15.51C31.6248 15.5833 32.1198 16.1883 32.0648 16.885C31.9915 17.5267 31.4415 18.0033 30.7998 18.0033Z" fill="#EB0E0E"/>
</svg>