<svg xmlns="http://www.w3.org/2000/svg" width="44" height="44" viewBox="0 0 44 44" fill="none">
  <path d="M29.6815 3.66667H14.3182C7.64484 3.66667 3.6665 7.645 3.6665 14.3183V29.6633C3.6665 36.355 7.64484 40.3333 14.3182 40.3333H29.6632C36.3365 40.3333 40.3148 36.355 40.3148 29.6817V14.3183C40.3332 7.645 36.3548 3.66667 29.6815 3.66667ZM20.0748 32.1017C19.5432 32.6333 18.5348 33.1467 17.8015 33.2567L13.2915 33.8983C13.1265 33.9167 12.9615 33.935 12.7965 33.935C12.0448 33.935 11.3482 33.6783 10.8532 33.1833C10.2482 32.5783 9.9915 31.6983 10.1382 30.7267L10.7798 26.2167C10.8898 25.465 11.3848 24.475 11.9348 23.9433L20.1115 15.7667C20.2582 16.1517 20.4048 16.5367 20.6065 16.9767C20.7898 17.3617 20.9915 17.765 21.2115 18.1317C21.3948 18.4433 21.5965 18.7367 21.7615 18.9567C21.9632 19.2683 22.2015 19.5617 22.3482 19.7267C22.4398 19.855 22.5132 19.9467 22.5498 19.9833C23.0082 20.5333 23.5398 21.0467 23.9982 21.4317C24.1265 21.56 24.1998 21.6333 24.2365 21.6517C24.5115 21.8717 24.7865 22.0917 25.0248 22.2567C25.3182 22.4767 25.6115 22.6783 25.9232 22.8433C26.2898 23.0633 26.6932 23.265 27.0965 23.4667C27.5182 23.65 27.9032 23.815 28.2882 23.9433L20.0748 32.1017ZM31.8448 20.3317L30.1582 22.0367C30.0482 22.1467 29.9015 22.2017 29.7548 22.2017C29.6998 22.2017 29.6265 22.2017 29.5898 22.1833C25.8682 21.12 22.8982 18.15 21.8348 14.4283C21.7798 14.2267 21.8348 14.0067 21.9815 13.8783L23.6865 12.1733C26.4732 9.38667 29.1315 9.44167 31.8632 12.1733C33.2565 13.5667 33.9348 14.905 33.9348 16.2983C33.9165 17.6183 33.2382 18.9383 31.8448 20.3317Z" fill="#537EB4"/>
</svg>