<svg xmlns="http://www.w3.org/2000/svg" width="44" height="44" viewBox="0 0 44 44" fill="none">
  <path d="M16.4998 40.3333H27.4998C36.6665 40.3333 40.3332 36.6667 40.3332 27.5V16.5C40.3332 7.33333 36.6665 3.66667 27.4998 3.66667H16.4998C7.33317 3.66667 3.6665 7.33333 3.6665 16.5V27.5C3.6665 36.6667 7.33317 40.3333 16.4998 40.3333Z" stroke="black" stroke-width="1.5" stroke-linecap="round" stroke-linejoin="round"/>
  <path d="M32.8164 16.5917C28.8197 16.1883 24.7864 15.9867 20.7714 15.9867C18.3881 15.9867 16.0048 16.115 13.6398 16.3533L11.1831 16.5917" stroke="black" stroke-width="1.5" stroke-linecap="round" stroke-linejoin="round"/>
  <path d="M17.8013 15.3817L18.0579 13.805C18.2413 12.6683 18.3879 11.8067 20.4229 11.8067H23.5763C25.6113 11.8067 25.7579 12.705 25.9412 13.805L26.1979 15.3633" stroke="black" stroke-width="1.5" stroke-linecap="round" stroke-linejoin="round"/>
  <path d="M30.2317 16.7383L29.4433 28.8383C29.315 30.7267 29.205 32.1933 25.85 32.1933H18.1317C14.7767 32.1933 14.6667 30.7267 14.5383 28.8383L13.75 16.7383" stroke="black" stroke-width="1.5" stroke-linecap="round" stroke-linejoin="round"/>
</svg>