<svg width="40" height="40" viewBox="0 0 40 40" fill="none" xmlns="http://www.w3.org/2000/svg">
<g id="vuesax/linear/global-search">
<g id="global-search">
<g id="Group">
<path id="Vector" d="M36.6668 20C36.6668 10.8 29.2002 3.33333 20.0002 3.33333C10.8002 3.33333 3.3335 10.8 3.3335 20C3.3335 29.2 10.8002 36.6667 20.0002 36.6667" stroke="#292D32" stroke-width="1.5" stroke-linecap="round" stroke-linejoin="round"/>
<path id="Vector_2" d="M13.3333 5H15C11.75 14.7333 11.75 25.2667 15 35H13.3333" stroke="#292D32" stroke-width="1.5" stroke-linecap="round" stroke-linejoin="round"/>
<path id="Vector_3" d="M25 5C26.6167 9.86667 27.4333 14.9333 27.4333 20" stroke="#292D32" stroke-width="1.5" stroke-linecap="round" stroke-linejoin="round"/>
<path id="Vector_4" d="M5 26.6667V25C9.86667 26.6167 14.9333 27.4334 20 27.4334" stroke="#292D32" stroke-width="1.5" stroke-linecap="round" stroke-linejoin="round"/>
<path id="Vector_5" d="M5 15C14.7333 11.75 25.2667 11.75 35 15" stroke="#292D32" stroke-width="1.5" stroke-linecap="round" stroke-linejoin="round"/>
</g>
<g id="Group_2">
<path id="Vector_6" d="M30.3333 35.6667C33.2788 35.6667 35.6667 33.2789 35.6667 30.3334C35.6667 27.3878 33.2788 25 30.3333 25C27.3878 25 25 27.3878 25 30.3334C25 33.2789 27.3878 35.6667 30.3333 35.6667Z" stroke="#292D32" stroke-width="1.5" stroke-linecap="round" stroke-linejoin="round"/>
<path id="Vector_7" d="M36.6667 36.6667L35 35" stroke="#292D32" stroke-width="1.5" stroke-linecap="round" stroke-linejoin="round"/>
</g>
</g>
</g>
</svg>